<svg width="295" height="278" xmlns="http://www.w3.org/2000/svg" xmlns:xlink="http://www.w3.org/1999/xlink" overflow="hidden"><defs><clipPath id="clip0"><path d="M186 295 481 295 481 573 186 573Z" fill-rule="evenodd" clip-rule="evenodd"/></clipPath></defs><g clip-path="url(#clip0)" transform="translate(-186 -295)"><path d="M304.61 464.647 281.241 482.722 283.117 485.546C284.632 488.947 285.584 492.632 285.872 496.467L285.845 497.467 353.585 506.121 354.737 502.069C355.752 499.85 357 497.772 358.449 495.862L359.793 494.439 341.121 470.299 335.953 472.305C331.816 473.463 327.384 473.83 322.854 473.251 316.06 472.383 310.013 469.512 305.229 465.306ZM255.94 435.382 255.458 437.253C253.296 442.684 249.209 447.041 244.13 449.602L242.551 450.215 247.74 466.454 250.384 465.99C252.575 465.826 254.815 465.879 257.08 466.168 261.043 466.674 264.752 467.862 268.105 469.599L273.952 474.025 297.712 455.649 297.5 455.313C295.588 451.522 294.391 447.335 294.063 442.953L294.134 440.261ZM249.452 320.333C253.589 319.174 258.021 318.808 262.55 319.386 280.667 321.701 293.478 338.264 291.164 356.381 290.296 363.175 287.424 369.223 283.218 374.007L281.921 375.225 310.35 411.981 314.352 409.903C319.513 407.752 325.291 406.883 331.236 407.643L331.263 407.651 336.251 384.737 333.147 383.687C325.191 379.055 320.354 369.974 321.594 360.269 322.833 350.563 329.798 342.989 338.663 340.507 341.617 339.679 344.783 339.417 348.019 339.83 360.959 341.483 370.11 353.314 368.457 366.255 367.01 377.578 357.772 386 346.815 386.821L343.552 386.734 338.548 409.723 340.802 410.364C343.761 411.716 346.469 413.485 348.861 415.588L349.133 415.877 393.896 381.255 391.974 376.305C390.816 372.169 390.449 367.736 391.028 363.207 393.342 345.09 409.905 332.279 428.023 334.593 446.14 336.908 458.951 353.471 456.636 371.588 454.322 389.706 437.759 402.516 419.641 400.202 412.847 399.334 406.799 396.462 402.016 392.256L400.413 390.549 356.108 424.817 356.59 425.581C359.458 431.268 360.717 437.844 359.849 444.638 358.981 451.432 356.11 457.479 351.904 462.263L350.361 463.712 368.497 487.16 369.248 486.648C371.353 485.523 373.586 484.62 375.913 483.969 380.05 482.81 384.482 482.443 389.011 483.022 407.129 485.336 419.94 501.9 417.625 520.017 415.311 538.134 398.747 550.945 380.63 548.63 364.777 546.605 352.988 533.671 351.838 518.332L351.865 517.332 284.408 508.714 284.183 509.689C279.214 524.247 264.551 533.802 248.699 531.777 230.581 529.462 217.771 512.899 220.085 494.782 221.387 484.591 227.197 476.079 235.256 470.993L240.509 468.659 235.203 452.055 230.518 451.93C217.577 450.277 208.427 438.446 210.08 425.505 211.32 415.799 218.285 408.226 227.149 405.743 230.104 404.915 233.27 404.654 236.505 405.067 247.828 406.513 256.25 415.752 257.071 426.709L257.039 427.901 295.051 432.757 295.752 429.73C296.994 426.091 298.842 422.764 301.163 419.853L301.68 419.305 272.762 381.916 267.267 384.048C263.13 385.207 258.698 385.573 254.169 384.995 236.051 382.68 223.241 366.117 225.555 348 227.291 334.412 237.042 323.809 249.452 320.333Z" stroke="#FFFFFF" stroke-width="46.6667" stroke-linejoin="round" stroke-miterlimit="10" fill-rule="evenodd"/><path d="M289.236 445.152 285.199 451.991 282.932 453.778 317.264 493.887 319.684 491.779C321.952 490.488 324.374 489.719 326.812 489.431L332.14 489.836 346.819 460.966ZM388.344 387.632 352.288 458.549 391.603 469.346 394.053 464.405C395.545 462.456 397.443 460.767 399.711 459.476L406.125 457.364 394.459 388.706 393.453 388.775ZM379.116 380.029 288.437 431.632 290.161 436.866C290.322 438.237 290.331 439.613 290.194 440.97L290.089 441.467 348.567 457.527 385.015 385.84 383.39 384.936ZM292.054 334.121C300.409 331.394 309.808 334.812 314.325 342.749 319.487 351.82 316.318 363.358 307.247 368.52 304.979 369.811 302.557 370.58 300.119 370.867L293.333 370.352 279.093 422.2 282.884 424.079 286.59 428.334 377.567 376.562 376.114 372.149C375.252 364.835 378.736 357.377 385.539 353.506 386.673 352.861 387.845 352.346 389.039 351.956 397.395 349.228 406.793 352.647 411.31 360.584 416.472 369.655 413.303 381.193 404.232 386.355 402.531 387.323 400.744 387.998 398.928 388.396L398.248 388.443 409.959 457.366 414.063 457.678C418.726 458.959 422.901 462.019 425.482 466.554 430.644 475.625 427.475 487.163 418.405 492.325 409.334 497.487 397.796 494.318 392.634 485.247 391.343 482.98 390.573 480.558 390.286 478.12L390.674 473.011 350.539 461.988 335.85 490.88 340.526 493.198C342.476 494.69 344.165 496.589 345.455 498.857 350.617 507.928 347.449 519.466 338.378 524.628 329.307 529.79 317.769 526.621 312.607 517.55 308.735 510.747 309.55 502.556 314.026 496.708L314.414 496.369 279.794 455.926 277.235 457.059C268.88 459.787 259.481 456.368 254.964 448.431 249.802 439.36 252.971 427.822 262.042 422.66 264.31 421.37 266.732 420.6 269.17 420.313L275.559 420.798 289.839 368.803 286.405 367.101C284.456 365.609 282.766 363.71 281.476 361.442 276.314 352.371 279.483 340.833 288.554 335.671 289.688 335.026 290.86 334.511 292.054 334.121Z" stroke="#FFFFFF" stroke-width="46.6667" stroke-linejoin="round" stroke-miterlimit="10" fill="#FFED00" fill-rule="evenodd"/><path d="M289.236 445.152 285.199 451.991 282.932 453.778 317.264 493.887 319.684 491.779C321.952 490.488 324.374 489.719 326.812 489.431L332.14 489.836 346.819 460.966ZM388.344 387.632 352.288 458.549 391.603 469.346 394.053 464.405C395.545 462.456 397.443 460.767 399.711 459.476L406.125 457.364 394.459 388.706 393.453 388.775ZM379.116 380.029 288.437 431.632 290.161 436.866C290.322 438.237 290.331 439.613 290.194 440.97L290.089 441.467 348.567 457.527 385.015 385.84 383.39 384.936ZM292.054 334.121C300.409 331.394 309.808 334.812 314.325 342.749 319.487 351.82 316.318 363.358 307.247 368.52 304.979 369.811 302.557 370.58 300.119 370.867L293.333 370.352 279.093 422.2 282.884 424.079 286.59 428.334 377.567 376.562 376.114 372.149C375.252 364.835 378.736 357.377 385.539 353.506 386.673 352.861 387.845 352.346 389.039 351.956 397.395 349.228 406.793 352.647 411.31 360.584 416.472 369.655 413.303 381.193 404.232 386.355 402.531 387.323 400.744 387.998 398.928 388.396L398.248 388.443 409.959 457.366 414.063 457.678C418.726 458.959 422.901 462.019 425.482 466.554 430.644 475.625 427.475 487.163 418.405 492.325 409.334 497.487 397.796 494.318 392.634 485.247 391.343 482.98 390.573 480.558 390.286 478.12L390.674 473.011 350.539 461.988 335.85 490.88 340.526 493.198C342.476 494.69 344.165 496.589 345.455 498.857 350.617 507.928 347.449 519.466 338.378 524.628 329.307 529.79 317.769 526.621 312.607 517.55 308.735 510.747 309.55 502.556 314.026 496.708L314.414 496.369 279.794 455.926 277.235 457.059C268.88 459.787 259.481 456.368 254.964 448.431 249.802 439.36 252.971 427.822 262.042 422.66 264.31 421.37 266.732 420.6 269.17 420.313L275.559 420.798 289.839 368.803 286.405 367.101C284.456 365.609 282.766 363.71 281.476 361.442 276.314 352.371 279.483 340.833 288.554 335.671 289.688 335.026 290.86 334.511 292.054 334.121Z" stroke="#FFED00" stroke-linejoin="round" stroke-miterlimit="10" fill="#FFED00" fill-rule="evenodd"/><path d="M304.61 464.647 281.241 482.722 283.117 485.546C284.632 488.947 285.584 492.632 285.872 496.467L285.845 497.467 353.585 506.121 354.737 502.069C355.752 499.85 357 497.772 358.449 495.862L359.793 494.439 341.121 470.299 335.953 472.305C331.816 473.463 327.384 473.83 322.854 473.251 316.06 472.383 310.013 469.512 305.229 465.306ZM255.94 435.382 255.458 437.253C253.296 442.684 249.209 447.041 244.13 449.602L242.551 450.215 247.74 466.454 250.384 465.99C252.575 465.826 254.815 465.879 257.08 466.168 261.043 466.674 264.752 467.862 268.105 469.599L273.952 474.025 297.712 455.649 297.5 455.313C295.588 451.522 294.391 447.335 294.063 442.953L294.134 440.261ZM249.452 320.333C253.589 319.174 258.021 318.808 262.55 319.386 280.667 321.701 293.478 338.264 291.164 356.381 290.296 363.175 287.424 369.223 283.218 374.007L281.921 375.225 310.35 411.981 314.352 409.903C319.513 407.752 325.291 406.883 331.236 407.643L331.263 407.651 336.251 384.737 333.147 383.687C325.191 379.055 320.354 369.974 321.594 360.269 322.833 350.563 329.798 342.989 338.663 340.507 341.617 339.679 344.783 339.417 348.019 339.83 360.959 341.483 370.11 353.314 368.457 366.255 367.01 377.578 357.772 386 346.815 386.821L343.552 386.734 338.548 409.723 340.802 410.364C343.761 411.716 346.469 413.485 348.861 415.588L349.133 415.877 393.896 381.255 391.974 376.305C390.816 372.169 390.449 367.736 391.028 363.207 393.342 345.09 409.905 332.279 428.023 334.593 446.14 336.908 458.951 353.471 456.636 371.588 454.322 389.706 437.759 402.516 419.641 400.202 412.847 399.334 406.799 396.462 402.016 392.256L400.413 390.549 356.108 424.817 356.59 425.581C359.458 431.268 360.717 437.844 359.849 444.638 358.981 451.432 356.11 457.479 351.904 462.263L350.361 463.712 368.497 487.16 369.248 486.648C371.353 485.523 373.586 484.62 375.913 483.969 380.05 482.81 384.482 482.443 389.011 483.022 407.129 485.336 419.94 501.9 417.625 520.017 415.311 538.134 398.747 550.945 380.63 548.63 364.777 546.605 352.988 533.671 351.838 518.332L351.865 517.332 284.408 508.714 284.183 509.689C279.214 524.247 264.551 533.802 248.699 531.777 230.581 529.462 217.771 512.899 220.085 494.782 221.387 484.591 227.197 476.079 235.256 470.993L240.509 468.659 235.203 452.055 230.518 451.93C217.577 450.277 208.427 438.446 210.08 425.505 211.32 415.799 218.285 408.226 227.149 405.743 230.104 404.915 233.27 404.654 236.505 405.067 247.828 406.513 256.25 415.752 257.071 426.709L257.039 427.901 295.051 432.757 295.752 429.73C296.994 426.091 298.842 422.764 301.163 419.853L301.68 419.305 272.762 381.916 267.267 384.048C263.13 385.207 258.698 385.573 254.169 384.995 236.051 382.68 223.241 366.117 225.555 348 227.291 334.412 237.042 323.809 249.452 320.333Z" fill-rule="evenodd"/><path d="M404.996 520.448C402.594 531.641 391.574 538.767 380.381 536.365 369.189 533.963 362.063 522.943 364.464 511.75 366.866 500.558 377.887 493.432 389.079 495.833 400.272 498.235 407.398 509.256 404.996 520.448Z" fill="#FFFFFF" fill-rule="evenodd"/><path d="M347.213 444.113C344.811 455.306 333.791 462.432 322.598 460.03 311.406 457.628 304.279 446.608 306.681 435.415 309.083 424.223 320.103 417.097 331.296 419.498 342.488 421.9 349.615 432.921 347.213 444.113Z" fill="#FFFFFF" fill-rule="evenodd"/></g></svg>